<?xml version="1.0" encoding="UTF-8"?>
<svg id="Layer_1" data-name="Layer 1" xmlns="http://www.w3.org/2000/svg" version="1.1" viewBox="0 0 512 512">
  <defs>
    <style>
      .cls-1 {
        fill: #3473b9;
      }

      .cls-1, .cls-2, .cls-3, .cls-4 {
        stroke-width: 0px;
      }

      .cls-2 {
        fill: #3472b9;
      }

      .cls-3 {
        fill: #f68523;
      }

      .cls-4 {
        fill: #f68525;
      }
    </style>
  </defs>
  <path class="cls-3" d="M232.44,485.26c-.07-.48-.41-.65-.83-.74-4.33-.86-6.25-3.95-7.28-7.85-.49-1.86.43-3.55,1.02-5.16,1.91-5.16,3.98-10.26,6.17-15.31,1.98-4.56,7.32-6.41,11.74-5.14,5.93,1.7,8.05,8.17,6.12,12.45-2.31,5.15-4.31,10.43-6.53,15.62-1.28,3-3.45,5.03-6.81,5.55-.25.04-.45.38-.68.58h-2.93Z"/>
  <path class="cls-1" d="M257.8,485.26c-2.09-1.59-4.16-3.22-6.3-4.74-.98-.7-1.06-1.37-.64-2.45,1.93-4.91,4.26-9.67,5.71-15.05,3.24,2.55,6.42,4.82,9.32,7.41,4.79,4.26,3.7,11.19-2.05,14.07-.42.21-.96.25-1.17.77h-4.88Z"/>
  <path class="cls-3" d="M228.39,446.88c.1.61-.39,1.61-.83,2.67-2.63,6.35-5.17,12.75-7.76,19.12-1.9,4.66-5.57,6.64-10.88,5.93-4.05-.54-7.36-3.99-7.91-8.38-.27-2.19.85-4.06,1.63-5.98,2.43-5.99,4.85-11.98,7.41-17.92,1.54-3.58,5.52-5.9,8.92-5.51,4.58.53,8.29,3.43,9.26,7.32.17.7.1,1.45.17,2.75Z"/>
  <g>
    <path class="cls-4" d="M458.24,317.49c-.66.47-.89,1.16-.88,1.91.08,5.59-.96,11.09-1.58,16.61-.49,4.31-1.38,8.59-2.3,12.83-1.25,5.79-2.71,11.54-4.6,17.16-3.57,10.62-8.29,20.63-14.78,29.86-10.17,14.47-23.95,24.29-39.49,32.06-10.91,5.46-22.29,9.67-33.93,13.27-2.25.7-4.07.62-5.95-.96-6.79-5.73-13.64-11.39-20.52-17.01-6.64-5.43-13.37-10.75-20.01-16.18-5.83-4.76-11.59-9.61-17.4-14.4-5.06-4.17-10.15-8.3-15.23-12.45-4.76-3.89-9.47-7.86-14.31-11.66-4.38-3.44-9.11-6.14-15.01-5.53-3.43.35-6.43,1.98-9.49,3.35-8.56,3.84-17,7.95-25.6,11.71-6.71,2.93-13.39,2.74-19.87-1.07-5.04-2.97-5.26-9.78-2.51-13.64,1.58-2.22,3.61-3.93,5.97-5.28,12.29-7.02,24.56-14.07,36.89-21.04,5.92-3.34,11.81-6.74,17.96-9.68,6.74-3.22,13.22-2.75,19.92.24,7.22,3.22,14.37,6.59,21.68,9.63,3.93,1.64,7.47.92,11-.36,11.3-4.12,21.57-9.95,29.82-18.91,1.09-1.19,2.08-2.49,3.02-3.81,1.04-1.47.66-2.12-1.22-2.09-6.91.09-13.82.14-20.72.09-6.4-.05-12.76-.75-19.13-1.32-5.14-.46-10.25-1.13-15.25-2.25-10.39-2.33-20.36-5.82-28.29-13.33-5.72-5.42-9.03-12.32-11.15-19.85-1.69-5.99-2.01-12.18-1.34-18.22.93-8.38,3.79-16.24,8.58-23.38,7.81-11.64,19.18-17.62,32.27-21.15,4.27-1.15,8.61-2.1,12.95-2.68,6.41-.86,12.89-1.4,19.35-1.55,10.23-.23,20.46-.22,30.7-.12,6.58.06,13.14.42,19.68.93,5.7.44,11.4,1.08,17.09,1.88,6.77.95,13.49,2.02,20.13,3.65,11.71,2.88,22.51,7.63,31.13,16.28,6.79,6.81,11.34,15.09,14.58,24.11,2.58,7.17,4.46,14.49,5.5,22.06.56,4.07,1.32,8.1,1.43,12.23.02.96.11,1.96.9,2.68v25.36Z"/>
    <path class="cls-2" d="M234.33,328.93c-9.16,5.53-18.1,10.86-26.96,16.33-4.96,3.06-10.02,6.05-14.61,9.62-5.36,4.17-7.71,10.12-6.54,16.83,1.29,7.4,6.14,12.1,13.13,14.6,5.36,1.92,10.97,2.12,16.2.24,4.66-1.67,9.09-4.09,13.65-6.1,6.88-3.04,13.68-6.27,20.63-9.12,4.26-1.74,8.27-.55,11.74,2.38,6.19,5.23,12.31,10.53,18.54,15.7,5.55,4.59,11.25,9,16.82,13.55,5.52,4.51,10.95,9.12,16.45,13.64,5.12,4.21,10.29,8.38,15.44,12.56,4.96,4.03,9.95,8.03,14.87,12.12,3.74,3.1,4.56,7.93,2.11,11.51-2.81,4.11-8.25,5.51-12.43,2.81-3.18-2.06-6.06-4.61-9.02-7-5.53-4.48-11.02-9.01-16.54-13.51-5.52-4.5-11.05-8.99-16.6-13.46-7.88-6.35-15.77-12.68-23.66-19.01-1.32-1.06-2.61-2.2-4.04-3.1-1.32-.83-2.83-.9-4,.35-1.15,1.23-1.06,2.6-.13,4.01,1.39,2.11,3.65,3.2,5.48,4.78,4.22,3.65,8.7,6.99,13.02,10.52,5.52,4.49,10.97,9.07,16.49,13.57,5.59,4.55,11.23,9.03,16.83,13.56,2.58,2.08,5.23,4.09,7.63,6.37,2.19,2.08,3.62,4.76,2.82,7.88-.94,3.67-3.71,5.64-7.3,6.33-2.21.43-4.19-.63-5.87-1.89-3.69-2.77-7.26-5.68-10.84-8.59-4.45-3.62-8.85-7.31-13.3-10.94-6.71-5.47-13.43-10.94-20.17-16.37-6.05-4.88-12.13-9.71-18.2-14.56-1.61-1.28-3.34-1.11-4.59.26-1.38,1.51-.83,3.29.59,4.54,2.3,2.04,4.74,3.92,7.13,5.86,6.99,5.7,13.99,11.41,20.99,17.1,5.63,4.58,11.3,9.13,16.9,13.75,3.17,2.61,6.59,4.94,9,8.4,2.01,2.89,1.25,6.32-1.31,10.03-1.69,2.44-5.92,3.56-8.77,2.72-4.39-1.29-7.32-4.7-10.74-7.34-5.83-4.51-11.43-9.31-17.17-13.94-1.02-.82-2.08-1.59-2.71-2.75-3.74-6.84-9.64-9.55-17.21-8.84-1.72.16-2.28-.23-2.76-1.94-2.23-7.92-10.91-13.39-19.01-12.2-2,.29-5.85-1.23-7.16-2.77-5.2-6.11-11.7-8.4-19.54-6.53-1.38.33-1.85-.43-2.46-1.36-2.4-3.69-5.55-6.56-9.82-7.84-7.64-2.31-14.11.89-18.27,7.02-1.22,1.8-2.19,3.79-3.16,5.75-.53,1.06-.93,1.5-2.12.71-7-4.65-13.95-9.36-20.48-14.65-7.2-5.83-14.18-11.89-20.54-18.63-19.92-21.1-35.33-45.03-45.2-72.42-3.47-9.62-6.33-19.39-8.45-29.41-2.01-9.54-3.48-19.11-4.32-28.83-1.01-11.76-1.17-23.49-.65-35.27.32-7.28,1.17-14.49,2.05-21.72,1.21-9.98,3.32-19.77,5.81-29.46,2.03-7.88,4.52-15.65,7.7-23.16,4.41-10.43,9.18-20.72,15.41-30.21,10.04-15.3,21.53-29.35,35.35-41.53,14.77-13.01,31.02-23.58,48.83-31.83,10.24-4.75,20.78-8.73,31.61-11.88,7.19-2.09,14.37-4.33,21.76-5.59,5.97-1.01,11.97-1.83,18-2.5,7.14-.79,14.27-1.16,21.45-1.32,9.91-.22,19.8-.07,29.68.76,7.71.65,15.37,1.75,22.98,3,10.53,1.73,20.91,4.36,31,7.85,10.79,3.73,21.49,7.7,31.61,13.13,12.73,6.83,24.68,14.67,35.2,24.65,8.77,8.33,16.45,17.43,21.63,28.46,4.62,9.83,6.92,20.2,6.14,31.03-.54,7.46-2.3,14.64-5.61,21.57-3.4,7.11-7.64,13.27-13.8,18.16-5.89,4.68-12.5,7.87-19.75,9.74-10.64,2.74-21.49,3.03-32.32,2.04-7.6-.7-15.15-2.06-22.46-4.37-12.85-4.07-25.58-8.54-38.52-12.26-7.44-2.13-15.11-3.5-22.96-3.85-7.41-.33-14.8-.31-22.05.86-10.11,1.63-19.88,4.63-28.97,9.61-15.63,8.57-27.07,20.92-33.98,37.36-2.97,7.06-4.91,14.39-6.25,21.98-1.43,8.15-1.62,16.34-1.18,24.46.81,14.68,4.55,28.62,12.66,41.16,7,10.84,16.19,19.3,27.33,25.71.55.32,1.07.68,1.81,1.16Z"/>
    <path class="cls-3" d="M189.09,462.69c-7.21-.01-11.72-5.9-9.6-12.48,2.04-6.34,4.82-12.45,7.59-18.54,2.46-5.39,10.82-5.5,14.59-1.74,3.04,3.02,4.25,6.41,2.58,10.51-2.25,5.53-4.57,11.03-6.86,16.55-1.68,4.04-5.17,5.2-8.3,5.71Z"/>
    <path class="cls-3" d="M181.81,428.8c-.21,2.24-1.9,5.38-3.31,8.6-1.41,3.23-2.36,6.7-5.35,9.07-3.26,2.59-7.9,2.81-11.47.29-2.84-2-4.21-6.76-3.17-10.25,1.46-4.9,3.63-9.49,5.98-14,2.05-3.93,6.45-5.89,10.18-4.81,5.1,1.47,7.53,4.75,7.15,11.11Z"/>
  </g>
</svg>