<?xml version="1.0" encoding="UTF-8"?>
<svg id="Outline_Logo" data-name="Outline Logo" xmlns="http://www.w3.org/2000/svg" version="1.1" viewBox="0 0 1080 1080">
  <defs>
    <style>
      .cls-1 {
        fill: #f36c21;
      }

      .cls-1, .cls-2 {
        stroke-width: 0px;
      }

      .cls-2 {
        fill: #1a365d;
      }
    </style>
  </defs>
  <path class="cls-2" d="M503.78,719.23c-161.83-20.6-237.43-220.4-137.12-346.09,146.76-183.91,335.42-21.08,335.42-21.08l129.46-102.73S607.45.23,308.65,194.63c-128.21,83.42-263.65,378.29-22.12,603.21,0,0,33.22-32.91,36.82-33.51s46.2-12.6,44.4,34.8c0,0,47.4-15.6,48,34.2,0,0,43.2-6.6,42.6,37.2,0,0,45-6.6,35.4,43.8l47.2,45s23.6,3.6,26-17.4l-44.4-41.4s2.4-10.2,7.2-6.6l58.2,51s22.8,5.4,22.2-15.6l-57-54.6s-3.6-10.2,7.2-9.6l64.8,61.8s27.6,4.2,22.8-22.8l-64.2-58.2s-3-7.8,6.6-8.4l69.6,63.6s27.6,8.4,24.6-24l-118.2-107.4s-5.4-9-16.8-1.8l-46.2,32.4s-58.8,2.4-46.2-42c0,0,52.4-38.37,46.63-39.1Z"/>
  <path class="cls-1" d="M688.82,863.85c45.53-16.72,249.72-106.79,237.63-397.46h-385.49s-16.3.94-18.1,20.74v101.25s2.25,19.35,20.26,19.29l192.4-1.6s-40.55,85.07-125.26,107.27c0,0-42.41-28.8-83.81,4.2-13.42,10.7-60.3,48-60.3,48,0,0,5.48,24.03,33.97,22.61l45.23-31.01s13.5-13.5,30.6,5.4l112.87,101.32Z"/>
  <path class="cls-1" d="M287.95,815.18l39.15-38.7s32.4-10.8,29.7,27.45l-41.85,38.7s-27,7.65-27-27.45Z"/>
  <path class="cls-1" d="M328,852.53l44.1-41.4s32.85-10.8,29.25,27l-44.39,43.2s-31.21,5.4-28.96-28.8Z"/>
  <path class="cls-1" d="M371.2,888.53l44.1-42.86s33.3-5.74,29.7,25.76l-43.37,43.65s-31.78,8.1-30.43-26.55Z"/>
  <path class="cls-1" d="M420.25,919.58l33.3-34.2s31.05-9.45,30.15,22.05l-36.45,38.7s-27.45,4.5-27-26.55Z"/>
</svg>